<svg width="113" height="113" viewBox="0 0 113 113" fill="none" xmlns="http://www.w3.org/2000/svg">
<g clip-path="url(#clip0)">
<mask id="path-1-outside-1" maskUnits="userSpaceOnUse" x="-1" y="-1" width="115" height="115" fill="black">
<rect fill="white" x="-1" y="-1" width="115" height="115"/>
<path d="M9.93164 19.8633C15.4079 19.8633 19.8633 15.4079 19.8633 9.93164C19.8633 4.45533 15.4079 0 9.93164 0C4.45533 0 0 4.45533 0 9.93164C0 15.4079 4.45533 19.8633 9.93164 19.8633ZM9.93164 3.31055C13.5825 3.31055 16.5527 6.28077 16.5527 9.93164C16.5527 13.5825 13.5825 16.5527 9.93164 16.5527C6.28077 16.5527 3.31055 13.5825 3.31055 9.93164C3.31055 6.28077 6.28077 3.31055 9.93164 3.31055ZM56.5 69.7682C51.274 69.7682 46.3607 71.8036 42.6652 75.4988C41.4836 76.6804 40.4736 77.9879 39.6438 79.3891H19.4506C15.1407 79.3891 11.0877 77.71 8.03845 74.6606C4.98944 71.6138 3.31055 67.5612 3.31055 63.2491C3.31055 59.7295 4.42333 56.385 6.52862 53.5774C8.56571 50.8606 11.4642 48.8173 14.69 47.8235C16.3323 47.317 17.4355 45.8069 17.4355 44.0479C17.4355 38.5074 19.4075 33.1337 22.988 28.9163C23.5797 28.2193 23.4943 27.1747 22.7975 26.583C22.101 25.9915 21.0562 26.0767 20.4645 26.7735C16.3764 31.5888 14.125 37.7235 14.125 44.0656C14.125 44.3454 13.9599 44.5842 13.7149 44.6595C9.82614 45.8575 6.33352 48.3192 3.87996 51.5913C1.34165 54.9765 0 59.0076 0 63.2491C0 68.446 2.02363 73.3302 5.69789 77.0018C9.37216 80.6758 14.2563 82.6995 19.4506 82.6995H38.0836C37.3288 84.7992 36.9349 87.0358 36.9349 89.3336C36.9349 94.5596 38.97 99.4727 42.6654 103.168C46.4796 106.983 51.49 108.89 56.5002 108.89C61.5104 108.89 66.5208 106.983 70.335 103.168C74.0305 99.4729 76.0656 94.5596 76.0656 89.3336C76.0656 84.1073 74.0305 79.1942 70.335 75.4986C66.6393 71.8036 61.726 69.7682 56.5 69.7682V69.7682ZM40.2452 89.3338C40.2452 84.9884 41.9521 80.8939 45.006 77.84C48.0762 74.7698 52.1581 73.079 56.5 73.079C60.2851 73.079 63.8721 74.3648 66.7642 76.7288L43.8948 99.598C41.531 96.7059 40.2452 93.1186 40.2452 89.3338V89.3338ZM67.994 100.827C62.0511 106.77 52.6143 107.141 46.236 101.939L69.1052 79.0693C71.469 81.9612 72.7548 85.5483 72.7548 89.3336C72.7548 93.6752 71.064 97.7574 67.994 100.827ZM84.076 71.4409C84.0645 70.5341 83.3258 69.8066 82.4211 69.8066C82.4141 69.8066 82.407 69.8066 82.4 69.8069C81.2613 69.821 80.0592 69.8309 79.0126 69.8347C79.7014 68.9075 80.6176 67.6477 81.8111 65.9423C82.6436 64.7527 83.1874 63.625 83.4278 62.5901C84.1278 59.5735 81.5714 56.792 78.6047 56.792C76.2549 56.792 74.2207 58.4638 73.7683 60.7675C73.5921 61.6645 74.1763 62.5345 75.0735 62.7108C75.9709 62.8865 76.8407 62.3025 77.0168 61.4056C77.1651 60.6505 77.8329 60.1028 78.6047 60.1028C79.5842 60.1028 80.424 60.9869 80.185 61.9147C80.0307 62.5137 79.6564 63.248 79.0989 64.0443C77.0748 66.9364 75.8671 68.5177 75.2183 69.367C74.3984 70.4405 73.9867 70.9794 74.2653 71.8841C74.4304 72.4206 74.8356 72.8318 75.3776 73.0123C75.5944 73.0845 75.7895 73.1496 78.3231 73.1496C79.3017 73.1496 80.6293 73.1399 82.4414 73.1172C83.3556 73.1055 84.0875 72.3553 84.076 71.4409V71.4409ZM103.068 93.1367C97.5921 93.1367 93.1367 97.5921 93.1367 103.068C93.1367 108.545 97.5921 113 103.068 113C108.545 113 113 108.545 113 103.068C113 97.5921 108.545 93.1367 103.068 93.1367ZM103.068 109.689C99.4175 109.689 96.4473 106.719 96.4473 103.068C96.4473 99.4175 99.4175 96.4473 103.068 96.4473C106.719 96.4473 109.689 99.4175 109.689 103.068C109.689 106.719 106.719 109.689 103.068 109.689ZM113 63.2491C113 58.0522 110.976 53.168 107.302 49.4964C103.628 45.8224 98.7437 43.7988 93.5494 43.7988C93.1422 43.7988 92.5786 43.8566 92.4174 43.383C89.2181 33.9711 80.386 27.6475 70.4396 27.6475C67.9814 27.6475 65.5596 28.0304 63.2407 28.7863C63.0017 28.8651 62.7351 28.7691 62.579 28.551C57.5713 21.5327 49.4406 17.3429 40.8301 17.3429C35.7974 17.3429 30.894 18.7509 26.6506 21.4146C25.8763 21.9006 25.6426 22.9224 26.1286 23.6967C26.6144 24.4709 27.6362 24.7042 28.4105 24.2186C32.1262 21.8862 36.4207 20.6534 40.8301 20.6534C48.3733 20.6534 55.4965 24.3246 59.8856 30.4756C60.8876 31.8762 62.6483 32.4619 64.2674 31.9335C66.2538 31.286 68.3304 30.9578 70.4396 30.9578C78.9676 30.9578 86.5403 36.3792 89.2841 44.4516C89.8562 46.1345 91.6984 47.1091 93.5494 47.1091C97.8593 47.1091 101.912 48.7882 104.962 51.8376C108.01 54.8845 109.689 58.937 109.689 63.2491C109.689 72.1487 102.449 79.3891 93.5494 79.3891H81.7129C80.7988 79.3891 80.0576 80.13 80.0576 81.0444C80.0576 81.9588 80.7988 82.6997 81.7129 82.6997H93.5494C104.275 82.6997 113 73.9742 113 63.2491V63.2491ZM39.7864 47.419C41.3 47.419 42.7597 47.8645 44.0075 48.7076C44.7652 49.219 45.7939 49.0201 46.3057 48.2625C46.8175 47.505 46.6182 46.4761 45.8606 45.9643C44.0634 44.7502 41.9627 44.1084 39.7862 44.1084C33.7965 44.1084 28.9236 48.9813 28.9236 54.971C28.9236 60.9606 33.7965 65.8335 39.7862 65.8335C42.6297 65.8335 45.1139 64.7185 46.8548 62.6426C47.4423 61.9421 47.3508 60.8982 46.6502 60.3109C45.9499 59.7234 44.9058 59.815 44.3183 60.5155C43.1993 61.8498 41.663 62.5232 39.7862 62.5232C35.6219 62.5232 32.2341 59.1354 32.2341 54.9712C32.2341 50.807 35.6224 47.419 39.7864 47.419ZM71.2103 54.9707C71.2103 48.9811 66.3374 44.1082 60.3477 44.1082C54.3581 44.1082 49.4852 48.9811 49.4852 54.9707C49.4852 60.9604 54.3581 65.8333 60.3477 65.8333C66.3374 65.8333 71.2103 60.9604 71.2103 54.9707ZM52.7959 54.9707C52.7959 50.8065 56.1837 47.4187 60.348 47.4187C64.5122 47.4187 67.9 50.8065 67.9 54.9707C67.9 59.135 64.5122 62.5228 60.348 62.5228C56.1837 62.5228 52.7959 59.135 52.7959 54.9707Z"/>
</mask>
<path d="M9.93164 19.8633C15.4079 19.8633 19.8633 15.4079 19.8633 9.93164C19.8633 4.45533 15.4079 0 9.93164 0C4.45533 0 0 4.45533 0 9.93164C0 15.4079 4.45533 19.8633 9.93164 19.8633ZM9.93164 3.31055C13.5825 3.31055 16.5527 6.28077 16.5527 9.93164C16.5527 13.5825 13.5825 16.5527 9.93164 16.5527C6.28077 16.5527 3.31055 13.5825 3.31055 9.93164C3.31055 6.28077 6.28077 3.31055 9.93164 3.31055ZM56.5 69.7682C51.274 69.7682 46.3607 71.8036 42.6652 75.4988C41.4836 76.6804 40.4736 77.9879 39.6438 79.3891H19.4506C15.1407 79.3891 11.0877 77.71 8.03845 74.6606C4.98944 71.6138 3.31055 67.5612 3.31055 63.2491C3.31055 59.7295 4.42333 56.385 6.52862 53.5774C8.56571 50.8606 11.4642 48.8173 14.69 47.8235C16.3323 47.317 17.4355 45.8069 17.4355 44.0479C17.4355 38.5074 19.4075 33.1337 22.988 28.9163C23.5797 28.2193 23.4943 27.1747 22.7975 26.583C22.101 25.9915 21.0562 26.0767 20.4645 26.7735C16.3764 31.5888 14.125 37.7235 14.125 44.0656C14.125 44.3454 13.9599 44.5842 13.7149 44.6595C9.82614 45.8575 6.33352 48.3192 3.87996 51.5913C1.34165 54.9765 0 59.0076 0 63.2491C0 68.446 2.02363 73.3302 5.69789 77.0018C9.37216 80.6758 14.2563 82.6995 19.4506 82.6995H38.0836C37.3288 84.7992 36.9349 87.0358 36.9349 89.3336C36.9349 94.5596 38.97 99.4727 42.6654 103.168C46.4796 106.983 51.49 108.89 56.5002 108.89C61.5104 108.89 66.5208 106.983 70.335 103.168C74.0305 99.4729 76.0656 94.5596 76.0656 89.3336C76.0656 84.1073 74.0305 79.1942 70.335 75.4986C66.6393 71.8036 61.726 69.7682 56.5 69.7682V69.7682ZM40.2452 89.3338C40.2452 84.9884 41.9521 80.8939 45.006 77.84C48.0762 74.7698 52.1581 73.079 56.5 73.079C60.2851 73.079 63.8721 74.3648 66.7642 76.7288L43.8948 99.598C41.531 96.7059 40.2452 93.1186 40.2452 89.3338V89.3338ZM67.994 100.827C62.0511 106.77 52.6143 107.141 46.236 101.939L69.1052 79.0693C71.469 81.9612 72.7548 85.5483 72.7548 89.3336C72.7548 93.6752 71.064 97.7574 67.994 100.827ZM84.076 71.4409C84.0645 70.5341 83.3258 69.8066 82.4211 69.8066C82.4141 69.8066 82.407 69.8066 82.4 69.8069C81.2613 69.821 80.0592 69.8309 79.0126 69.8347C79.7014 68.9075 80.6176 67.6477 81.8111 65.9423C82.6436 64.7527 83.1874 63.625 83.4278 62.5901C84.1278 59.5735 81.5714 56.792 78.6047 56.792C76.2549 56.792 74.2207 58.4638 73.7683 60.7675C73.5921 61.6645 74.1763 62.5345 75.0735 62.7108C75.9709 62.8865 76.8407 62.3025 77.0168 61.4056C77.1651 60.6505 77.8329 60.1028 78.6047 60.1028C79.5842 60.1028 80.424 60.9869 80.185 61.9147C80.0307 62.5137 79.6564 63.248 79.0989 64.0443C77.0748 66.9364 75.8671 68.5177 75.2183 69.367C74.3984 70.4405 73.9867 70.9794 74.2653 71.8841C74.4304 72.4206 74.8356 72.8318 75.3776 73.0123C75.5944 73.0845 75.7895 73.1496 78.3231 73.1496C79.3017 73.1496 80.6293 73.1399 82.4414 73.1172C83.3556 73.1055 84.0875 72.3553 84.076 71.4409V71.4409ZM103.068 93.1367C97.5921 93.1367 93.1367 97.5921 93.1367 103.068C93.1367 108.545 97.5921 113 103.068 113C108.545 113 113 108.545 113 103.068C113 97.5921 108.545 93.1367 103.068 93.1367ZM103.068 109.689C99.4175 109.689 96.4473 106.719 96.4473 103.068C96.4473 99.4175 99.4175 96.4473 103.068 96.4473C106.719 96.4473 109.689 99.4175 109.689 103.068C109.689 106.719 106.719 109.689 103.068 109.689ZM113 63.2491C113 58.0522 110.976 53.168 107.302 49.4964C103.628 45.8224 98.7437 43.7988 93.5494 43.7988C93.1422 43.7988 92.5786 43.8566 92.4174 43.383C89.2181 33.9711 80.386 27.6475 70.4396 27.6475C67.9814 27.6475 65.5596 28.0304 63.2407 28.7863C63.0017 28.8651 62.7351 28.7691 62.579 28.551C57.5713 21.5327 49.4406 17.3429 40.8301 17.3429C35.7974 17.3429 30.894 18.7509 26.6506 21.4146C25.8763 21.9006 25.6426 22.9224 26.1286 23.6967C26.6144 24.4709 27.6362 24.7042 28.4105 24.2186C32.1262 21.8862 36.4207 20.6534 40.8301 20.6534C48.3733 20.6534 55.4965 24.3246 59.8856 30.4756C60.8876 31.8762 62.6483 32.4619 64.2674 31.9335C66.2538 31.286 68.3304 30.9578 70.4396 30.9578C78.9676 30.9578 86.5403 36.3792 89.2841 44.4516C89.8562 46.1345 91.6984 47.1091 93.5494 47.1091C97.8593 47.1091 101.912 48.7882 104.962 51.8376C108.01 54.8845 109.689 58.937 109.689 63.2491C109.689 72.1487 102.449 79.3891 93.5494 79.3891H81.7129C80.7988 79.3891 80.0576 80.13 80.0576 81.0444C80.0576 81.9588 80.7988 82.6997 81.7129 82.6997H93.5494C104.275 82.6997 113 73.9742 113 63.2491V63.2491ZM39.7864 47.419C41.3 47.419 42.7597 47.8645 44.0075 48.7076C44.7652 49.219 45.7939 49.0201 46.3057 48.2625C46.8175 47.505 46.6182 46.4761 45.8606 45.9643C44.0634 44.7502 41.9627 44.1084 39.7862 44.1084C33.7965 44.1084 28.9236 48.9813 28.9236 54.971C28.9236 60.9606 33.7965 65.8335 39.7862 65.8335C42.6297 65.8335 45.1139 64.7185 46.8548 62.6426C47.4423 61.9421 47.3508 60.8982 46.6502 60.3109C45.9499 59.7234 44.9058 59.815 44.3183 60.5155C43.1993 61.8498 41.663 62.5232 39.7862 62.5232C35.6219 62.5232 32.2341 59.1354 32.2341 54.9712C32.2341 50.807 35.6224 47.419 39.7864 47.419ZM71.2103 54.9707C71.2103 48.9811 66.3374 44.1082 60.3477 44.1082C54.3581 44.1082 49.4852 48.9811 49.4852 54.9707C49.4852 60.9604 54.3581 65.8333 60.3477 65.8333C66.3374 65.8333 71.2103 60.9604 71.2103 54.9707ZM52.7959 54.9707C52.7959 50.8065 56.1837 47.4187 60.348 47.4187C64.5122 47.4187 67.9 50.8065 67.9 54.9707C67.9 59.135 64.5122 62.5228 60.348 62.5228C56.1837 62.5228 52.7959 59.135 52.7959 54.9707Z" fill="#008F96"/>
<path d="M9.93164 19.8633C15.4079 19.8633 19.8633 15.4079 19.8633 9.93164C19.8633 4.45533 15.4079 0 9.93164 0C4.45533 0 0 4.45533 0 9.93164C0 15.4079 4.45533 19.8633 9.93164 19.8633ZM9.93164 3.31055C13.5825 3.31055 16.5527 6.28077 16.5527 9.93164C16.5527 13.5825 13.5825 16.5527 9.93164 16.5527C6.28077 16.5527 3.31055 13.5825 3.31055 9.93164C3.31055 6.28077 6.28077 3.31055 9.93164 3.31055ZM56.5 69.7682C51.274 69.7682 46.3607 71.8036 42.6652 75.4988C41.4836 76.6804 40.4736 77.9879 39.6438 79.3891H19.4506C15.1407 79.3891 11.0877 77.71 8.03845 74.6606C4.98944 71.6138 3.31055 67.5612 3.31055 63.2491C3.31055 59.7295 4.42333 56.385 6.52862 53.5774C8.56571 50.8606 11.4642 48.8173 14.69 47.8235C16.3323 47.317 17.4355 45.8069 17.4355 44.0479C17.4355 38.5074 19.4075 33.1337 22.988 28.9163C23.5797 28.2193 23.4943 27.1747 22.7975 26.583C22.101 25.9915 21.0562 26.0767 20.4645 26.7735C16.3764 31.5888 14.125 37.7235 14.125 44.0656C14.125 44.3454 13.9599 44.5842 13.7149 44.6595C9.82614 45.8575 6.33352 48.3192 3.87996 51.5913C1.34165 54.9765 0 59.0076 0 63.2491C0 68.446 2.02363 73.3302 5.69789 77.0018C9.37216 80.6758 14.2563 82.6995 19.4506 82.6995H38.0836C37.3288 84.7992 36.9349 87.0358 36.9349 89.3336C36.9349 94.5596 38.97 99.4727 42.6654 103.168C46.4796 106.983 51.49 108.89 56.5002 108.89C61.5104 108.89 66.5208 106.983 70.335 103.168C74.0305 99.4729 76.0656 94.5596 76.0656 89.3336C76.0656 84.1073 74.0305 79.1942 70.335 75.4986C66.6393 71.8036 61.726 69.7682 56.5 69.7682V69.7682ZM40.2452 89.3338C40.2452 84.9884 41.9521 80.8939 45.006 77.84C48.0762 74.7698 52.1581 73.079 56.5 73.079C60.2851 73.079 63.8721 74.3648 66.7642 76.7288L43.8948 99.598C41.531 96.7059 40.2452 93.1186 40.2452 89.3338V89.3338ZM67.994 100.827C62.0511 106.77 52.6143 107.141 46.236 101.939L69.1052 79.0693C71.469 81.9612 72.7548 85.5483 72.7548 89.3336C72.7548 93.6752 71.064 97.7574 67.994 100.827ZM84.076 71.4409C84.0645 70.5341 83.3258 69.8066 82.4211 69.8066C82.4141 69.8066 82.407 69.8066 82.4 69.8069C81.2613 69.821 80.0592 69.8309 79.0126 69.8347C79.7014 68.9075 80.6176 67.6477 81.8111 65.9423C82.6436 64.7527 83.1874 63.625 83.4278 62.5901C84.1278 59.5735 81.5714 56.792 78.6047 56.792C76.2549 56.792 74.2207 58.4638 73.7683 60.7675C73.5921 61.6645 74.1763 62.5345 75.0735 62.7108C75.9709 62.8865 76.8407 62.3025 77.0168 61.4056C77.1651 60.6505 77.8329 60.1028 78.6047 60.1028C79.5842 60.1028 80.424 60.9869 80.185 61.9147C80.0307 62.5137 79.6564 63.248 79.0989 64.0443C77.0748 66.9364 75.8671 68.5177 75.2183 69.367C74.3984 70.4405 73.9867 70.9794 74.2653 71.8841C74.4304 72.4206 74.8356 72.8318 75.3776 73.0123C75.5944 73.0845 75.7895 73.1496 78.3231 73.1496C79.3017 73.1496 80.6293 73.1399 82.4414 73.1172C83.3556 73.1055 84.0875 72.3553 84.076 71.4409V71.4409ZM103.068 93.1367C97.5921 93.1367 93.1367 97.5921 93.1367 103.068C93.1367 108.545 97.5921 113 103.068 113C108.545 113 113 108.545 113 103.068C113 97.5921 108.545 93.1367 103.068 93.1367ZM103.068 109.689C99.4175 109.689 96.4473 106.719 96.4473 103.068C96.4473 99.4175 99.4175 96.4473 103.068 96.4473C106.719 96.4473 109.689 99.4175 109.689 103.068C109.689 106.719 106.719 109.689 103.068 109.689ZM113 63.2491C113 58.0522 110.976 53.168 107.302 49.4964C103.628 45.8224 98.7437 43.7988 93.5494 43.7988C93.1422 43.7988 92.5786 43.8566 92.4174 43.383C89.2181 33.9711 80.386 27.6475 70.4396 27.6475C67.9814 27.6475 65.5596 28.0304 63.2407 28.7863C63.0017 28.8651 62.7351 28.7691 62.579 28.551C57.5713 21.5327 49.4406 17.3429 40.8301 17.3429C35.7974 17.3429 30.894 18.7509 26.6506 21.4146C25.8763 21.9006 25.6426 22.9224 26.1286 23.6967C26.6144 24.4709 27.6362 24.7042 28.4105 24.2186C32.1262 21.8862 36.4207 20.6534 40.8301 20.6534C48.3733 20.6534 55.4965 24.3246 59.8856 30.4756C60.8876 31.8762 62.6483 32.4619 64.2674 31.9335C66.2538 31.286 68.3304 30.9578 70.4396 30.9578C78.9676 30.9578 86.5403 36.3792 89.2841 44.4516C89.8562 46.1345 91.6984 47.1091 93.5494 47.1091C97.8593 47.1091 101.912 48.7882 104.962 51.8376C108.01 54.8845 109.689 58.937 109.689 63.2491C109.689 72.1487 102.449 79.3891 93.5494 79.3891H81.7129C80.7988 79.3891 80.0576 80.13 80.0576 81.0444C80.0576 81.9588 80.7988 82.6997 81.7129 82.6997H93.5494C104.275 82.6997 113 73.9742 113 63.2491V63.2491ZM39.7864 47.419C41.3 47.419 42.7597 47.8645 44.0075 48.7076C44.7652 49.219 45.7939 49.0201 46.3057 48.2625C46.8175 47.505 46.6182 46.4761 45.8606 45.9643C44.0634 44.7502 41.9627 44.1084 39.7862 44.1084C33.7965 44.1084 28.9236 48.9813 28.9236 54.971C28.9236 60.9606 33.7965 65.8335 39.7862 65.8335C42.6297 65.8335 45.1139 64.7185 46.8548 62.6426C47.4423 61.9421 47.3508 60.8982 46.6502 60.3109C45.9499 59.7234 44.9058 59.815 44.3183 60.5155C43.1993 61.8498 41.663 62.5232 39.7862 62.5232C35.6219 62.5232 32.2341 59.1354 32.2341 54.9712C32.2341 50.807 35.6224 47.419 39.7864 47.419ZM71.2103 54.9707C71.2103 48.9811 66.3374 44.1082 60.3477 44.1082C54.3581 44.1082 49.4852 48.9811 49.4852 54.9707C49.4852 60.9604 54.3581 65.8333 60.3477 65.8333C66.3374 65.8333 71.2103 60.9604 71.2103 54.9707ZM52.7959 54.9707C52.7959 50.8065 56.1837 47.4187 60.348 47.4187C64.5122 47.4187 67.9 50.8065 67.9 54.9707C67.9 59.135 64.5122 62.5228 60.348 62.5228C56.1837 62.5228 52.7959 59.135 52.7959 54.9707Z" stroke="#008F96" mask="url(#path-1-outside-1)"/>
</g>
<defs>
<clipPath id="clip0">
<rect width="113" height="113" fill="white"/>
</clipPath>
</defs>
</svg>
