<svg width="47" height="45" viewBox="0 0 47 45" fill="none" xmlns="http://www.w3.org/2000/svg">
<path d="M23.5 0C10.5132 0 0 10.0658 0 22.5C0 34.9342 10.5132 45 23.5 45C36.4868 45 47 34.9342 47 22.5C47 10.0658 36.4868 0 23.5 0ZM23.5 42.6316C11.8737 42.6316 2.47368 33.6316 2.47368 22.5C2.47368 11.3684 11.8737 2.36842 23.5 2.36842C35.1263 2.36842 44.5263 11.3684 44.5263 22.5C44.5263 33.6316 35.1263 42.6316 23.5 42.6316ZM37.6618 14.8618C37.1671 14.3882 36.425 14.3882 35.9303 14.8618L20.1605 30.0197L13.5434 23.6842C13.0487 23.2105 12.2447 23.2105 11.8118 23.6842C11.3171 24.1579 11.3171 24.9276 11.8118 25.3421L19.2947 32.5066C19.5421 32.7434 19.8513 32.8618 20.1605 32.8618C20.4697 32.8618 20.7789 32.7434 21.0263 32.5066L37.6618 16.5197C38.1566 16.0461 38.1566 15.3355 37.6618 14.8618Z" fill="#008F96"/>
</svg>
