<svg width="113" height="113" viewBox="0 0 113 113" xmlns="http://www.w3.org/2000/svg">
<g clip-path="url(#clip0)">
<path d="M51.7917 58.0491V7.06249C51.7917 5.76299 50.737 4.70825 49.4375 4.70825C22.1763 4.70825 0 28.9986 0 58.854C0 88.7094 24.2904 113 54.1458 113C67.5034 113 74.7305 110.58 83.893 103.046C84.8771 102.237 85.0371 100.791 84.2556 99.7836L51.7917 58.0491ZM54.1458 108.292C26.8845 108.292 4.70826 86.1155 4.70826 58.8542C4.70826 32.4687 23.5086 10.8434 47.0833 9.48272V58.8542C47.0833 59.3769 47.2574 59.8854 47.5823 60.2996L79.1093 100.834C71.6749 106.512 65.474 108.292 54.1458 108.292Z" fill="#008F96"/>
<path d="M58.8542 56.5H110.646C111.945 56.5 113 55.4453 113 54.1458C113 24.2904 88.7096 0 58.8542 0C57.5547 0 56.5 1.05474 56.5 2.35424V54.146C56.5 55.4453 57.5547 56.5 58.8542 56.5ZM61.2083 4.76476C86.6004 5.96075 107.039 26.3996 108.235 51.7915H61.2083V4.76476Z" fill="#008F96"/>
<path d="M110.646 61.2083H63.5629C62.6589 61.2083 61.8255 61.7309 61.4346 62.5501C61.0438 63.3694 61.1616 64.3394 61.7313 65.0408L92.3355 102.929C92.7451 103.442 93.3479 103.753 94.0023 103.8C94.0588 103.804 94.1106 103.804 94.1671 103.804C94.7604 103.804 95.3349 103.578 95.7727 103.173C106.719 92.9613 113 78.5255 113 63.5625C113 62.263 111.946 61.2083 110.646 61.2083ZM94.3695 97.9522L68.4925 65.9167H108.236C107.657 77.8852 102.703 89.3311 94.3695 97.9522Z" fill="#008F96"/>
</g>
<defs>
<clipPath id="clip0">
<rect width="113" height="113"/>
</clipPath>
</defs>
</svg>
